<svg xmlns="http://www.w3.org/2000/svg" width="141.42" height="18.72" viewBox="0 0 141.42 18.72"><defs><style>.cls-1{fill:#003082;}</style></defs><title>toeflJuniorAsset 31</title><g id="Layer_2" data-name="Layer 2"><g id="TOEFL_Junior" data-name="TOEFL Junior"><path class="cls-1" d="M5,3.13H0L.53.4H13.67l-.54,2.73h-5L5.22,18.43H2.09Z"/><path class="cls-1" d="M19.23,18.72c-4.68,0-7.09-3.42-7.09-7.44a12.33,12.33,0,0,1,3.37-8.67A9.15,9.15,0,0,1,21.85.11c4.79,0,7.06,3.37,7.06,7.46a12.33,12.33,0,0,1-3.24,8.59,9,9,0,0,1-6.42,2.57Zm.45-2.62a4.91,4.91,0,0,0,3.5-1.53C24.74,13,25.63,10,25.63,7.68s-.83-4.95-4.15-4.95A5,5,0,0,0,17.9,4.28a10.62,10.62,0,0,0-2.46,6.85c0,2.73,1.2,5,4.23,5Z"/><path class="cls-1" d="M40.63,10.41H34.16l-1,5.38h7.28l-.51,2.65H29.5L32.93.4h10L42.42,3H35.55l-.91,4.73h6.5Z"/><path class="cls-1" d="M45.82.4h9.92L55.24,3H48.44l-1,5.08h6.31l-.51,2.62H47l-1.44,7.68H42.4Z"/><path class="cls-1" d="M58.53.4h3.1L58.74,15.7H65.8l-.51,2.73H55.1Z"/><path class="cls-1" d="M78.64.4h3.1l-2.3,12.12c-.83,4.41-2.73,6.21-6.47,6.21a8.1,8.1,0,0,1-2.84-.46l.62-2.65A6.42,6.42,0,0,0,73,16c1.77,0,2.89-.91,3.42-3.8Z"/><path class="cls-1" d="M94.88,5.4l-1.71,9c-.29,1.55-.48,2.92-.64,4H89.75L90,16.16H90a5.74,5.74,0,0,1-4.52,2.57c-1.9,0-3.4-1-3.4-3.69a11.12,11.12,0,0,1,.27-2.33l1.39-7.3h3.1l-1.34,7.11a9.27,9.27,0,0,0-.21,1.79c0,1.07.43,1.85,1.66,1.85,1.44,0,3.1-1.71,3.64-4.41L91.75,5.4Z"/><path class="cls-1" d="M95.58,18.43l1.68-9c.32-1.55.51-2.92.67-4h2.78l-.29,2.33h.05a5.61,5.61,0,0,1,4.68-2.62c1.87,0,3.32,1.12,3.32,3.58a12.19,12.19,0,0,1-.24,2.14l-1.42,7.6h-3.13l1.39-7.36a9.74,9.74,0,0,0,.16-1.55c0-1.1-.4-1.87-1.63-1.87-1.39,0-3.21,1.71-3.77,4.76l-1.12,6Z"/><path class="cls-1" d="M109.89,18.43l2.49-13h3.1l-2.46,13Zm4.55-14.9a1.54,1.54,0,0,1-1.58-1.66A1.84,1.84,0,0,1,114.73,0a1.57,1.57,0,0,1,1.66,1.66,1.86,1.86,0,0,1-1.93,1.87Z"/><path class="cls-1" d="M121.79,18.72a5.07,5.07,0,0,1-5.32-5.38c0-4.41,3.08-8.24,7.52-8.24a5.08,5.08,0,0,1,5.32,5.38c0,4.44-3.08,8.24-7.49,8.24Zm.43-2.41c2.33,0,3.88-3.21,3.88-5.8,0-1.34-.62-3-2.49-3-2.49,0-3.93,3.32-3.93,5.75,0,1.79.94,3,2.51,3Z"/><path class="cls-1" d="M130.27,18.43l1.52-8c.35-1.85.54-3.85.67-5h2.7c-.08.88-.16,1.79-.29,2.73H135c.88-1.74,2.33-3,4.09-3l.67,0-.62,3a4,4,0,0,0-.59,0c-2.22,0-3.64,2.25-4.15,5l-1,5.24Z"/><path class="cls-1" d="M140.8,17.72a2.12,2.12,0,0,1-3,0,2.14,2.14,0,0,1,0-3,2.13,2.13,0,0,1,3.63,1.5A2.07,2.07,0,0,1,140.8,17.72ZM138,14.92a1.86,1.86,0,0,0,0,2.6,1.83,1.83,0,0,0,2.59,0,1.86,1.86,0,0,0,0-2.6,1.83,1.83,0,0,0-2.59,0Zm1.25.12a1.81,1.81,0,0,1,.64.08.58.58,0,0,1,.36.59.51.51,0,0,1-.23.46.89.89,0,0,1-.34.11.57.57,0,0,1,.4.23.64.64,0,0,1,.13.36V17c0,.05,0,.11,0,.17a.37.37,0,0,0,0,.12v0h-.39v-.31a.57.57,0,0,0-.22-.54,1,1,0,0,0-.46-.07h-.32v.92h-.41V15Zm.45.37a1.07,1.07,0,0,0-.5-.09h-.35v.85h.37a1.11,1.11,0,0,0,.39-.05.42.42,0,0,0,.09-.71Z"/></g></g></svg>